[Header]
FileType HTR
DataType HTRS
FileVersion 1
NumSegments 64
NumFrames 3
DataFrameRate 24
EulerRotationOrder ZYX
CalibrationUnits mm
RotationUnits Degrees
GlobalAxisofGravity Y
BoneLengthAxis Y
ScaleFactor 1.0
[SegmentNames&Hierarchy]
Hips	GLOBAL
Spine	Hips
Spine1	Spine
Spine2	Spine1
Neck	Spine2
Head	Neck
LeftEye	Head
RightEye	Head
LeftShoulder	Spine2
LeftArm	LeftShoulder
LeftForeArm	LeftArm
LeftHand	LeftForeArm
LeftHandThumb1	LeftHand
LeftHandThumb2	LeftHandThumb1
LeftHandThumb3	LeftHandThumb2
LeftHandThumb4	LeftHandThumb3
LeftHandIndex1	LeftHand
LeftHandIndex2	LeftHandIndex1
LeftHandIndex3	LeftHandIndex2
LeftHandIndex4	LeftHandIndex3
LeftHandMiddle1	LeftHand
LeftHandMiddle2	LeftHandMiddle1
LeftHandMiddle3	LeftHandMiddle2
LeftHandMiddle4	LeftHandMiddle3
LeftHandRing1	LeftHand
LeftHandRing2	LeftHandRing1
LeftHandRing3	LeftHandRing2
LeftHandRing4	LeftHandRing3
LeftHandPinky1	LeftHand
LeftHandPinky2	LeftHandPinky1
LeftHandPinky3	LeftHandPinky2
LeftHandPinky4	LeftHandPinky3
RightShoulder	Spine2
RightArm	RightShoulder
RightForeArm	RightArm
RightHand	RightForeArm
RightHandPinky1	RightHand
RightHandPinky2	RightHandPinky1
RightHandPinky3	RightHandPinky2
RightHandPinky4	RightHandPinky3
RightHandRing1	RightHand
RightHandRing2	RightHandRing1
RightHandRing3	RightHandRing2
RightHandRing4	RightHandRing3
RightHandMiddle1	RightHand
RightHandMiddle2	RightHandMiddle1
RightHandMiddle3	RightHandMiddle2
RightHandMiddle4	RightHandMiddle3
RightHandIndex1	RightHand
RightHandIndex2	RightHandIndex1
RightHandIndex3	RightHandIndex2
RightHandIndex4	RightHandIndex3
RightHandThumb1	RightHand
RightHandThumb2	RightHandThumb1
RightHandThumb3	RightHandThumb2
RightHandThumb4	RightHandThumb3
LeftUpLeg	Hips
LeftLeg	LeftUpLeg
LeftFoot	LeftLeg
LeftToeBase	LeftFoot
RightUpLeg	Hips
RightLeg	RightUpLeg
RightFoot	RightLeg
RightToeBase	RightFoot
[BasePosition]
Hips	0	0	0	0	0	0	1
Spine	0	0	0	0	0	0	1
Spine1	0	0	0	0	0	0	1
Spine2	0	0	0	0	0	0	1
Neck	0	0	0	0	0	0	1
Head	0	0	0	0	0	0	1
LeftEye	0	0	0	0	0	0	1
RightEye	0	0	0	0	0	0	1
LeftShoulder	0	0	0	0	0	0	1
LeftArm	0	0	0	0	0	0	1
LeftForeArm	0	0	0	0	0	0	1
LeftHand	0	0	0	0	0	0	1
LeftHandThumb1	0	0	0	0	0	0	1
LeftHandThumb2	0	0	0	0	0	0	1
LeftHandThumb3	0	0	0	0	0	0	1
LeftHandThumb4	0	0	0	0	0	0	1
LeftHandIndex1	0	0	0	0	0	0	1
LeftHandIndex2	0	0	0	0	0	0	1
LeftHandIndex3	0	0	0	0	0	0	1
LeftHandIndex4	0	0	0	0	0	0	1
LeftHandMiddle1	0	0	0	0	0	0	1
LeftHandMiddle2	0	0	0	0	0	0	1
LeftHandMiddle3	0	0	0	0	0	0	1
LeftHandMiddle4	0	0	0	0	0	0	1
LeftHandRing1	0	0	0	0	0	0	1
LeftHandRing2	0	0	0	0	0	0	1
LeftHandRing3	0	0	0	0	0	0	1
LeftHandRing4	0	0	0	0	0	0	1
LeftHandPinky1	0	0	0	0	0	0	1
LeftHandPinky2	0	0	0	0	0	0	1
LeftHandPinky3	0	0	0	0	0	0	1
LeftHandPinky4	0	0	0	0	0	0	1
RightShoulder	0	0	0	0	0	0	1
RightArm	0	0	0	0	0	0	1
RightForeArm	0	0	0	0	0	0	1
RightHand	0	0	0	0	0	0	1
RightHandPinky1	0	0	0	0	0	0	1
RightHandPinky2	0	0	0	0	0	0	1
RightHandPinky3	0	0	0	0	0	0	1
RightHandPinky4	0	0	0	0	0	0	1
RightHandRing1	0	0	0	0	0	0	1
RightHandRing2	0	0	0	0	0	0	1
RightHandRing3	0	0	0	0	0	0	1
RightHandRing4	0	0	0	0	0	0	1
RightHandMiddle1	0	0	0	0	0	0	1
RightHandMiddle2	0	0	0	0	0	0	1
RightHandMiddle3	0	0	0	0	0	0	1
RightHandMiddle4	0	0	0	0	0	0	1
RightHandIndex1	0	0	0	0	0	0	1
RightHandIndex2	0	0	0	0	0	0	1
RightHandIndex3	0	0	0	0	0	0	1
RightHandIndex4	0	0	0	0	0	0	1
RightHandThumb1	0	0	0	0	0	0	1
RightHandThumb2	0	0	0	0	0	0	1
RightHandThumb3	0	0	0	0	0	0	1
RightHandThumb4	0	0	0	0	0	0	1
LeftUpLeg	0	0	0	0	0	0	1
LeftLeg	0	0	0	0	0	0	1
LeftFoot	0	0	0	0	0	0	1
LeftToeBase	0	0	0	0	0	0	1
RightUpLeg	0	0	0	0	0	0	1
RightLeg	0	0	0	0	0	0	1
RightFoot	0	0	0	0	0	0	1
RightToeBase	0	0	0	0	0	0	1
[Hips]
10	48.85100555	994.9694214	684.0393066	-0.1699661314	-3.142181396	5.244309425	1.0
11	52.72552109	1003.872314	748.6016235	-0.4375139773	-2.927934885	6.506494522	1.0
12	52.7955246	1014.015991	811.8756714	-0.4912364781	-3.324749947	6.487176895	1.0
[Spine]
10	0	101.8159943	1.315000057	2.734308958	0.7481202483	-0.8792324066	1.0
11	0	101.8159943	1.315000057	3.467785358	0.5949819684	-1.281281471	1.0
12	0	101.8159943	1.315000057	4.037808418	0.4098829627	-1.049166083	1.0
[Spine1]
10	0	100.8349991	-10.00800037	1.054777861	1.675291419	-1.816792607	1.0
11	0	100.8349991	-10.00800037	1.340540648	1.210491061	-2.053190947	1.0
12	0	100.8349991	-10.00800037	1.437062025	0.6999593973	-1.908489585	1.0
[Spine2]
10	0	91	-13.73399925	-3.435672522	1.517709255	-2.404737473	1.0
11	0	91	-13.73399925	-3.145005941	1.029907942	-2.623662233	1.0
12	0	91	-13.73399925	-3.044223785	0.5303259492	-2.45369029	1.0
[Neck]
10	0	166.7169952	-25.16200066	-4.869957447	-0.4377312362	-2.751303434	1.0
11	0	166.7169952	-25.16200066	-5.163843632	-0.2805455923	-3.278822422	1.0
12	0	166.7169952	-25.16200066	-4.866791725	0.0160059426	-3.49947381	1.0
[Head]
10	0	96.17900085	16.84999847	-0.3006547689	-2.020725012	-0.4747415185	1.0
11	0	96.17900085	16.84999847	-1.344757199	-1.880889893	-0.165787071	1.0
12	0	96.17900085	16.84999847	-1.840765834	-0.78627038	-0.7260850668	1.0
[LeftEye]
10	30.6760006	64.09500122	92.83599854	0	0	0	1.0
11	30.6760006	64.09500122	92.83599854	0	0	0	1.0
12	30.6760006	64.09500122	92.83599854	0	0	0	1.0
[RightEye]
10	-30.6760006	64.09500122	92.83499908	0	0	0	1.0
11	-30.6760006	64.09500122	92.83499908	0	0	0	1.0
12	-30.6760006	64.09500122	92.83499908	0	0	0	1.0
[LeftShoulder]
10	45.70400238	109.4599991	-26.28000069	7.502474308	-8.752996445	-9.977011681	1.0
11	45.70400238	109.4599991	-26.28000069	7.618403912	-9.932843208	-9.915347099	1.0
12	45.70400238	109.4599991	-26.28000069	7.812300682	-11.87500191	-9.854305267	1.0
[LeftArm]
10	105.923996	-5.24600029	-22.32099915	-17.32124519	24.97452164	-77.21842194	1.0
11	105.923996	-5.24600029	-22.32099915	-10.76377201	19.3988018	-74.53644562	1.0
12	105.923996	-5.24600029	-22.32099915	-4.868312359	13.07309341	-72.1364212	1.0
[LeftForeArm]
10	278.414978	-0.0009999999311	0	3.173269988e-06	-28.05418587	-0.0002032591728	1.0
11	278.414978	-0.0009999999311	0	2.671928996e-06	-27.79524422	-0.0002073930227	1.0
12	278.414978	-0.0009999999311	0	-1.553477341e-05	-26.42461395	-0.0001648896432	1.0
[LeftHand]
10	283.2879944	0	0	36.72222137	9.523238182	-19.19265747	1.0
11	283.2879944	0	0	38.56380081	6.332975864	-15.48274136	1.0
12	283.2879944	0	0	39.1098938	1.273490906	-10.53966141	1.0
[LeftHandThumb1]
10	24.6609993	-15.75	26.8239994	25.39055061	-8.912377357	34.26966858	1.0
11	24.6609993	-15.75	26.8239994	25.49952507	-8.910297394	33.62415695	1.0
12	24.6609993	-15.75	26.8239994	25.68902016	-8.777331352	32.9023056	1.0
[LeftHandThumb2]
10	32.29800034	-18.64699936	18.64699936	-6.504697323	26.72361374	-17.20555878	1.0
11	32.29800034	-18.64699936	18.64699936	-9.2750597	27.00121307	-18.65637398	1.0
12	32.29800034	-18.64699936	18.64699936	-10.89273071	26.78756523	-19.34449577	1.0
[LeftHandThumb3]
10	26.52600098	-15.31499958	15.31499958	6.772236347	-18.39535904	-2.571578979	1.0
11	26.52600098	-15.31499958	15.31499958	7.194889545	-15.09574413	-3.244738579	1.0
12	26.52600098	-15.31499958	15.31499958	7.584476471	-12.71379757	-0.9884306192	1.0
[LeftHandThumb4]
10	19.54599953	-11.28499985	11.28499985	0	0	0	1.0
11	19.54599953	-11.28499985	11.28499985	0	0	0	1.0
12	19.54599953	-11.28499985	11.28499985	0	0	0	1.0
[LeftHandIndex1]
10	91.09299469	-5.170999527	22.60099792	9.610793114	2.940387964	-9.248900414	1.0
11	91.09299469	-5.170999527	22.60099792	9.159002304	3.277631521	-12.01949024	1.0
12	91.09299469	-5.170999527	22.60099792	8.821242332	3.228001595	-12.12957859	1.0
[LeftHandIndex2]
10	36.76399994	0	0	-0.4731054604	2.461857319	-17.17527962	1.0
11	36.76399994	0	0	-0.4640111625	2.442261457	-16.96286201	1.0
12	36.76399994	0	0	-0.4587180018	2.430768251	-16.83843994	1.0
[LeftHandIndex3]
10	28.83100128	0	0	-0.0346951969	0.2104022354	-4.204102993	1.0
11	28.83100128	0	0	-0.03316705674	0.1891340762	-3.99200058	1.0
12	28.83100128	0	0	-0.03231395036	0.1766703427	-3.867832422	1.0
[LeftHandIndex4]
10	23.92700005	0	0	0	0	0	1.0
11	23.92700005	0	0	0	0	0	1.0
12	23.92700005	0	0	0	0	0	1.0
[LeftHandMiddle1]
10	95.33399963	0	0	-1.593957424	8.119138718	-16.52419281	1.0
11	95.33399963	0	0	-1.802127123	7.846796036	-18.26578903	1.0
12	95.33399963	0	0	-1.796741128	7.436078072	-18.26031685	1.0
[LeftHandMiddle2]
10	36.98199844	0	0	-1.007939458	3.314263105	-26.89582825	1.0
11	36.98199844	0	0	-1.008070469	3.314448833	-26.89805984	1.0
12	36.98199844	0	0	-1.010826826	3.318223953	-26.94415855	1.0
[LeftHandMiddle3]
10	29.50900078	0	0	-0.2401555479	1.822611213	-15.7737751	1.0
11	29.50900078	0	0	-0.2401415259	1.822545171	-15.77307129	1.0
12	29.50900078	0	0	-0.2414100766	1.826746583	-15.81727409	1.0
[LeftHandMiddle4]
10	28.3390007	0	0	0	0	0	1.0
11	28.3390007	0	0	0	0	0	1.0
12	28.3390007	0	0	0	0	0	1.0
[LeftHandRing1]
10	91.04499817	-0.4390000105	-18.65100098	-3.74992919	7.39246273	-33.99639511	1.0
11	91.04499817	-0.4390000105	-18.65100098	-3.938152552	7.146747589	-35.47752762	1.0
12	91.04499817	-0.4390000105	-18.65100098	-3.918905258	6.853330135	-35.44907379	1.0
[LeftHandRing2]
10	31.54000092	0	0	-0.1784142405	1.998482943	-16.85639763	1.0
11	31.54000092	0	0	-0.1775693893	1.99526155	-16.82282448	1.0
12	31.54000092	0	0	-0.1796848774	2.003307104	-16.90666008	1.0
[LeftHandRing3]
10	29.37700081	0	0	0.03189004958	1.211160898	-12.26912022	1.0
11	29.37700081	0	0	0.03228630126	1.207782984	-12.23497772	1.0
12	29.37700081	0	0	0.03133283183	1.216001511	-12.31810665	1.0
[LeftHandRing4]
10	26.47500038	0	0	0	0	0	1.0
11	26.47500038	0	0	0	0	0	1.0
12	26.47500038	0	0	0	0	0	1.0
[LeftHandPinky1]
10	80.77799988	-4.887000084	-38.06099701	-3.885876656	13.28718853	-30.3979454	1.0
11	80.77799988	-4.887000084	-38.06099701	-4.098766804	13.46205807	-31.93230629	1.0
12	80.77799988	-4.887000084	-38.06099701	-4.137947559	13.35941124	-32.22690201	1.0
[LeftHandPinky2]
10	36	0	0	-0.8805791736	2.575104952	-29.21105003	1.0
11	36	0	0	-0.8730986118	2.563246965	-29.0709095	1.0
12	36	0	0	-0.8729732037	2.563071012	-29.06863213	1.0
[LeftHandPinky3]
10	21.14200211	0	0	-0.106799826	1.535373569	-6.825855255	1.0
11	21.14200211	0	0	-0.1039727405	1.521642923	-6.685968399	1.0
12	21.14200211	0	0	-0.1039228886	1.521412849	-6.683691978	1.0
[LeftHandPinky4]
10	19.75699997	0	0	0	0	0	1.0
11	19.75699997	0	0	0	0	0	1.0
12	19.75699997	0	0	0	0	0	1.0
[RightShoulder]
10	-45.70000076	109.4620056	-26.28000069	-0.4844733775	10.10776424	-0.9653027654	1.0
11	-45.70000076	109.4620056	-26.28000069	-0.4893702567	9.836380005	-0.9730989337	1.0
12	-45.70000076	109.4620056	-26.28000069	-0.4654228985	9.881609917	-0.7638304234	1.0
[RightArm]
10	-105.9280014	-5.248000145	-22.32099915	16.03516579	6.181214333	70.25370789	1.0
11	-105.9280014	-5.248000145	-22.32099915	14.29224491	3.473115206	72.10930634	1.0
12	-105.9280014	-5.248000145	-22.32099915	12.16002274	0.7835869193	73.74138641	1.0
[RightForeArm]
10	-278.414978	0	0	1.377104581e-05	48.51405716	1.727122253e-05	1.0
11	-278.414978	0	0	1.045491445e-06	49.61080551	2.213541666e-05	1.0
12	-278.414978	0	0	-6.949845556e-06	47.45162964	3.339611567e-06	1.0
[RightHand]
10	-283.2879944	0	0.0009999999311	14.03613949	13.81510639	-7.441230774	1.0
11	-283.2879944	0	0.0009999999311	17.47667313	23.08156204	-10.17747593	1.0
12	-283.2879944	0	0.0009999999311	21.82991409	31.6472702	-10.10356045	1.0
[RightHandPinky1]
10	-80.76699829	-4.885000229	-38.06000137	-6.138361454	-7.217066765	50.23318481	1.0
11	-80.76699829	-4.885000229	-38.06000137	-5.811120987	-8.416349411	47.6209259	1.0
12	-80.76699829	-4.885000229	-38.06000137	-5.619357586	-9.153035164	45.71025848	1.0
[RightHandPinky2]
10	-36	0	0.0009999999311	-2.162561655	-3.997359753	48.51136017	1.0
11	-36	0	0.0009999999311	-2.193420887	-4.021575928	48.90501022	1.0
12	-36	0	0.0009999999311	-2.209641695	-4.034138203	49.11077499	1.0
[RightHandPinky3]
10	-21.14200211	0	0	-2.009342909	-1.577339411	42.70803833	1.0
11	-21.14200211	0	0	-2.038615227	-1.603875637	43.10263443	1.0
12	-21.14200211	0	0	-2.053896189	-1.617584109	43.30772018	1.0
[RightHandPinky4]
10	-19.75699997	0	0	0	0	0	1.0
11	-19.75699997	0	0	0	0	0	1.0
12	-19.75699997	0	0	0	0	0	1.0
[RightHandRing1]
10	-91.03599548	-0.4390000105	-18.65100098	-5.314628601	-6.315843105	45.69713593	1.0
11	-91.03599548	-0.4390000105	-18.65100098	-4.967871666	-7.072021484	42.94750595	1.0
12	-91.03599548	-0.4390000105	-18.65100098	-4.678434372	-7.633615017	40.66602707	1.0
[RightHandRing2]
10	-31.54000092	0	0	-0.3978868127	-2.665458679	23.94883156	1.0
11	-31.54000092	0	0	-0.3996758759	-2.66989255	23.99711418	1.0
12	-31.54000092	0	0	-0.3999281228	-2.670524597	24.0040493	1.0
[RightHandRing3]
10	-29.37700081	0	0	-0.1974298209	-0.1571418941	20.36783981	1.0
11	-29.37700081	0	0	-0.1987039745	-0.1619950682	20.41806412	1.0
12	-29.37700081	0	0	-0.1988949478	-0.1627303064	20.42579269	1.0
[RightHandRing4]
10	-26.47500038	0	0	0	0	0	1.0
11	-26.47500038	0	0	0	0	0	1.0
12	-26.47500038	0	0	0	0	0	1.0
[RightHandMiddle1]
10	-95.32500458	0	0	-3.078573465	-2.029736042	28.8573513	1.0
11	-95.32500458	0	0	-2.626071215	-2.493189335	25.37158775	1.0
12	-95.32500458	0	0	-2.28730011	-2.967167139	22.68484116	1.0
[RightHandMiddle2]
10	-36.98199844	0	0	-1.788866401	-4.181922913	38.46382904	1.0
11	-36.98199844	0	0	-1.77299118	-4.16745472	38.25146484	1.0
12	-36.98199844	0	0	-1.765237451	-4.160372734	38.14729309	1.0
[RightHandMiddle3]
10	-29.50900078	0	0	-0.9008184671	-3.078543663	31.46859169	1.0
11	-29.50900078	0	0	-0.8894967437	-3.060777187	31.25648117	1.0
12	-29.50900078	0	0	-0.8840051293	-3.052118301	31.15320206	1.0
[RightHandMiddle4]
10	-28.3390007	0	0.0009999999311	0	0	0	1.0
11	-28.3390007	0	0.0009999999311	0	0	0	1.0
12	-28.3390007	0	0.0009999999311	0	0	0	1.0
[RightHandIndex1]
10	-91.08300018	-5.167999744	22.60099792	-1.210900545	2.318377733	15.40145111	1.0
11	-91.08300018	-5.167999744	22.60099792	-0.8724129796	2.028968334	12.30739594	1.0
12	-91.08300018	-5.167999744	22.60099792	-0.6294349432	1.843868256	9.96552372	1.0
[RightHandIndex2]
10	-36.76399994	0	0	-0.960957408	-3.312473059	26.8386631	1.0
11	-36.76399994	0	0	-0.9459636807	-3.29071331	26.57840919	1.0
12	-36.76399994	0	0	-0.9372990131	-3.278044939	26.42744827	1.0
[RightHandIndex3]
10	-28.83100128	0	0	-0.3383259177	-0.5130159855	17.51762199	1.0
11	-28.83100128	0	0	-0.3305194676	-0.4881230891	17.25813103	1.0
12	-28.83100128	0	0	-0.3260547817	-0.4736570716	17.1076355	1.0
[RightHandIndex4]
10	-23.92700005	0	0	0	0	0	1.0
11	-23.92700005	0	0	0	0	0	1.0
12	-23.92700005	0	0	0	0	0	1.0
[RightHandThumb1]
10	-24.64799881	-15.72700024	26.82600021	14.20810223	2.465648651	-13.90855694	1.0
11	-24.64799881	-15.72700024	26.82600021	15.73664093	-0.1294678301	-14.47062778	1.0
12	-24.64799881	-15.72700024	26.82600021	16.77462959	-2.203279495	-15.15100956	1.0
[RightHandThumb2]
10	-32.29800034	-18.64699936	18.64699936	4.216011047	-7.970890045	-14.23247814	1.0
11	-32.29800034	-18.64699936	18.64699936	4.652959824	-6.011424065	-14.68666172	1.0
12	-32.29800034	-18.64699936	18.64699936	5.131745815	-4.344896317	-14.99663544	1.0
[RightHandThumb3]
10	-26.52600098	-15.31399918	15.31399918	-12.85393333	10.64393425	6.657124996	1.0
11	-26.52600098	-15.31399918	15.31399918	-12.77446556	10.25395584	6.79771328	1.0
12	-26.52600098	-15.31399918	15.31399918	-12.70038891	9.889779091	6.927791595	1.0
[RightHandThumb4]
10	-19.54599953	-11.28499985	11.28499985	0	0	0	1.0
11	-19.54599953	-11.28499985	11.28499985	0	0	0	1.0
12	-19.54599953	-11.28499985	11.28499985	0	0	0	1.0
[LeftUpLeg]
10	82.07800293	-67.51699829	-15.99599934	-24.0387764	0.9448744059	-9.379740715	1.0
11	82.07800293	-67.51699829	-15.99599934	-19.17758942	1.287160635	-10.98402309	1.0
12	82.07800293	-67.51699829	-15.99599934	-13.89117908	2.992640734	-10.92063141	1.0
[LeftLeg]
10	0	-443.7049866	2.845999956	21.65534973	3.807856321	2.242655516	1.0
11	0	-443.7049866	2.845999956	21.00575066	3.282217979	1.65705657	1.0
12	0	-443.7049866	2.845999956	18.74297905	1.556205273	0.5671353936	1.0
[LeftFoot]
10	0	-444.2789917	-29.8219986	1.972869396	-0.7665537596	3.373621941	1.0
11	0	-444.2789917	-29.8219986	-2.043142796	-0.712526083	3.97695899	1.0
12	0	-444.2789917	-29.8219986	-4.421311378	-0.5776125193	4.330031395	1.0
[LeftToeBase]
10	0	-87.28699493	107.1060028	-1.664654374	-6.539631414e-08	1.5073432e-06	1.0
11	0	-87.28699493	107.1060028	-2.001112461	-1.133967089e-06	-2.962221515e-06	1.0
12	0	-87.28699493	107.1060028	-3.235544682	4.013977275e-07	1.805025931e-06	1.0
[RightUpLeg]
10	-82.07800293	-67.51699829	-15.99599934	1.775674224	-8.174251556	-8.10137558	1.0
11	-82.07800293	-67.51699829	-15.99599934	-8.249733925	-7.932770252	-8.81823349	1.0
12	-82.07800293	-67.51699829	-15.99599934	-17.54609489	-6.830659389	-6.925796986	1.0
[RightLeg]
10	0	-443.7049866	2.861999989	52.40079117	7.9902215	-0.2702294886	1.0
11	0	-443.7049866	2.861999989	62.01272964	7.356321335	1.84943819	1.0
12	0	-443.7049866	2.861999989	63.91582489	7.964018345	4.337320805	1.0
[RightFoot]
10	0	-444.2770081	-29.83799934	21.70734978	-3.23089695	11.71672726	1.0
11	0	-444.2770081	-29.83799934	14.01302147	-6.920838833	6.536719322	1.0
12	0	-444.2770081	-29.83799934	8.049860001	-12.04281425	3.732713223	1.0
[RightToeBase]
10	0	-87.28699493	107.1060028	-0.3643007874	-2.863659347e-06	5.37735923e-06	1.0
11	0	-87.28699493	107.1060028	-1.433861494	-1.896596018e-06	-2.676632903e-06	1.0
12	0	-87.28699493	107.1060028	-0.5768329501	3.14345516e-06	-1.064302865e-06	1.0
[EndOfFile]
